<mxfile host="app.diagrams.net" agent="Mozilla/5.0 (X11; Linux x86_64; rv:134.0) Gecko/20100101 Firefox/134.0" version="26.0.16">
  <diagram name="Page-1" id="ouUaxmM-4JsnY5IxcH_O">
    <mxGraphModel dx="1687" dy="882" grid="1" gridSize="10" guides="1" tooltips="1" connect="1" arrows="1" fold="1" page="1" pageScale="1" pageWidth="850" pageHeight="1100" math="0" shadow="0">
      <root>
        <mxCell id="0" />
        <mxCell id="1" parent="0" />
        <mxCell id="9-GsEGquEJa_COEHX-JY-3" value="" style="edgeStyle=orthogonalEdgeStyle;rounded=0;orthogonalLoop=1;jettySize=auto;html=1;" edge="1" parent="1" source="9-GsEGquEJa_COEHX-JY-1" target="9-GsEGquEJa_COEHX-JY-2">
          <mxGeometry relative="1" as="geometry" />
        </mxCell>
        <mxCell id="9-GsEGquEJa_COEHX-JY-1" value="Bubble_sort" style="ellipse;whiteSpace=wrap;html=1;" vertex="1" parent="1">
          <mxGeometry x="380" y="20" width="120" height="80" as="geometry" />
        </mxCell>
        <mxCell id="9-GsEGquEJa_COEHX-JY-6" style="edgeStyle=orthogonalEdgeStyle;rounded=0;orthogonalLoop=1;jettySize=auto;html=1;exitX=0.5;exitY=1;exitDx=0;exitDy=0;entryX=0.625;entryY=0;entryDx=0;entryDy=0;" edge="1" parent="1" source="9-GsEGquEJa_COEHX-JY-2" target="9-GsEGquEJa_COEHX-JY-4">
          <mxGeometry relative="1" as="geometry" />
        </mxCell>
        <mxCell id="9-GsEGquEJa_COEHX-JY-2" value="Unsorted_array" style="shape=parallelogram;perimeter=parallelogramPerimeter;whiteSpace=wrap;html=1;fixedSize=1;" vertex="1" parent="1">
          <mxGeometry x="380" y="120" width="120" height="60" as="geometry" />
        </mxCell>
        <mxCell id="9-GsEGquEJa_COEHX-JY-8" value="" style="edgeStyle=orthogonalEdgeStyle;rounded=0;orthogonalLoop=1;jettySize=auto;html=1;" edge="1" parent="1" source="9-GsEGquEJa_COEHX-JY-4" target="9-GsEGquEJa_COEHX-JY-7">
          <mxGeometry relative="1" as="geometry" />
        </mxCell>
        <mxCell id="9-GsEGquEJa_COEHX-JY-26" style="edgeStyle=orthogonalEdgeStyle;rounded=0;orthogonalLoop=1;jettySize=auto;html=1;exitX=0;exitY=0.5;exitDx=0;exitDy=0;" edge="1" parent="1" source="9-GsEGquEJa_COEHX-JY-4" target="9-GsEGquEJa_COEHX-JY-25">
          <mxGeometry relative="1" as="geometry">
            <Array as="points">
              <mxPoint x="80" y="250" />
              <mxPoint x="80" y="870" />
            </Array>
          </mxGeometry>
        </mxCell>
        <mxCell id="9-GsEGquEJa_COEHX-JY-4" value="Repeat n-1 times" style="shape=hexagon;perimeter=hexagonPerimeter2;whiteSpace=wrap;html=1;fixedSize=1;" vertex="1" parent="1">
          <mxGeometry x="380" y="210" width="120" height="80" as="geometry" />
        </mxCell>
        <mxCell id="9-GsEGquEJa_COEHX-JY-10" value="" style="edgeStyle=orthogonalEdgeStyle;rounded=0;orthogonalLoop=1;jettySize=auto;html=1;" edge="1" parent="1" source="9-GsEGquEJa_COEHX-JY-7" target="9-GsEGquEJa_COEHX-JY-9">
          <mxGeometry relative="1" as="geometry" />
        </mxCell>
        <mxCell id="9-GsEGquEJa_COEHX-JY-7" value="i = 0, j = 1" style="whiteSpace=wrap;html=1;" vertex="1" parent="1">
          <mxGeometry x="380" y="330" width="120" height="60" as="geometry" />
        </mxCell>
        <mxCell id="9-GsEGquEJa_COEHX-JY-12" value="" style="edgeStyle=orthogonalEdgeStyle;rounded=0;orthogonalLoop=1;jettySize=auto;html=1;" edge="1" parent="1" source="9-GsEGquEJa_COEHX-JY-9" target="9-GsEGquEJa_COEHX-JY-11">
          <mxGeometry relative="1" as="geometry" />
        </mxCell>
        <mxCell id="9-GsEGquEJa_COEHX-JY-22" style="edgeStyle=orthogonalEdgeStyle;rounded=0;orthogonalLoop=1;jettySize=auto;html=1;exitX=1;exitY=0.5;exitDx=0;exitDy=0;entryX=1;entryY=0.5;entryDx=0;entryDy=0;" edge="1" parent="1" source="9-GsEGquEJa_COEHX-JY-9" target="9-GsEGquEJa_COEHX-JY-4">
          <mxGeometry relative="1" as="geometry">
            <Array as="points">
              <mxPoint x="550" y="460" />
              <mxPoint x="550" y="250" />
            </Array>
          </mxGeometry>
        </mxCell>
        <mxCell id="9-GsEGquEJa_COEHX-JY-9" value="Repeat n - 1 times " style="shape=hexagon;perimeter=hexagonPerimeter2;whiteSpace=wrap;html=1;fixedSize=1;" vertex="1" parent="1">
          <mxGeometry x="380" y="420" width="120" height="80" as="geometry" />
        </mxCell>
        <mxCell id="9-GsEGquEJa_COEHX-JY-14" value="" style="edgeStyle=orthogonalEdgeStyle;rounded=0;orthogonalLoop=1;jettySize=auto;html=1;" edge="1" parent="1" source="9-GsEGquEJa_COEHX-JY-11" target="9-GsEGquEJa_COEHX-JY-13">
          <mxGeometry relative="1" as="geometry" />
        </mxCell>
        <mxCell id="9-GsEGquEJa_COEHX-JY-11" value="a, b == i-th and j-th elem &lt;br&gt;of Unsorted_array" style="whiteSpace=wrap;html=1;" vertex="1" parent="1">
          <mxGeometry x="380" y="520" width="120" height="60" as="geometry" />
        </mxCell>
        <mxCell id="9-GsEGquEJa_COEHX-JY-15" style="edgeStyle=orthogonalEdgeStyle;rounded=0;orthogonalLoop=1;jettySize=auto;html=1;exitX=0;exitY=0.5;exitDx=0;exitDy=0;" edge="1" parent="1" source="9-GsEGquEJa_COEHX-JY-13">
          <mxGeometry relative="1" as="geometry">
            <mxPoint x="350" y="710" as="targetPoint" />
          </mxGeometry>
        </mxCell>
        <mxCell id="9-GsEGquEJa_COEHX-JY-13" value="a &amp;lt; b" style="rhombus;whiteSpace=wrap;html=1;" vertex="1" parent="1">
          <mxGeometry x="400" y="600" width="80" height="80" as="geometry" />
        </mxCell>
        <mxCell id="9-GsEGquEJa_COEHX-JY-16" value="YES" style="text;html=1;align=center;verticalAlign=middle;resizable=0;points=[];autosize=1;strokeColor=none;fillColor=none;" vertex="1" parent="1">
          <mxGeometry x="336" y="598" width="50" height="30" as="geometry" />
        </mxCell>
        <mxCell id="9-GsEGquEJa_COEHX-JY-20" style="edgeStyle=orthogonalEdgeStyle;rounded=0;orthogonalLoop=1;jettySize=auto;html=1;exitX=0;exitY=0.5;exitDx=0;exitDy=0;entryX=0.5;entryY=1;entryDx=0;entryDy=0;" edge="1" parent="1" source="9-GsEGquEJa_COEHX-JY-17" target="9-GsEGquEJa_COEHX-JY-19">
          <mxGeometry relative="1" as="geometry" />
        </mxCell>
        <mxCell id="9-GsEGquEJa_COEHX-JY-17" value="i-th elem of Unsorted_array = b&lt;br&gt;j-th elem of unsorted_array = a" style="rounded=0;whiteSpace=wrap;html=1;" vertex="1" parent="1">
          <mxGeometry x="240" y="720" width="240" height="60" as="geometry" />
        </mxCell>
        <mxCell id="9-GsEGquEJa_COEHX-JY-21" style="edgeStyle=orthogonalEdgeStyle;rounded=0;orthogonalLoop=1;jettySize=auto;html=1;exitX=0.5;exitY=0;exitDx=0;exitDy=0;entryX=0;entryY=0.5;entryDx=0;entryDy=0;" edge="1" parent="1" source="9-GsEGquEJa_COEHX-JY-19" target="9-GsEGquEJa_COEHX-JY-9">
          <mxGeometry relative="1" as="geometry" />
        </mxCell>
        <mxCell id="9-GsEGquEJa_COEHX-JY-19" value="i = i+1&lt;br&gt;j = j+1" style="rounded=0;whiteSpace=wrap;html=1;" vertex="1" parent="1">
          <mxGeometry x="110" y="520" width="120" height="60" as="geometry" />
        </mxCell>
        <mxCell id="9-GsEGquEJa_COEHX-JY-25" value="Sorted_array" style="shape=parallelogram;perimeter=parallelogramPerimeter;whiteSpace=wrap;html=1;fixedSize=1;" vertex="1" parent="1">
          <mxGeometry x="320" y="840" width="120" height="60" as="geometry" />
        </mxCell>
      </root>
    </mxGraphModel>
  </diagram>
</mxfile>
